<svg xmlns="http://www.w3.org/2000/svg" viewBox="0 0 64 64">
  <defs>
    <linearGradient id="bg" x1="0%" y1="0%" x2="100%" y2="100%">
      <stop offset="0%" stop-color="#111111" />
      <stop offset="100%" stop-color="#2b2b2b" />
    </linearGradient>
  </defs>
  <rect width="64" height="64" rx="16" fill="url(#bg)" />
  <path
    d="M40.7 21.1c-2-1.6-4.8-2.4-8.3-2.4-2.9 0-5.2.6-7.1 1.8-1.8 1.2-2.8 2.8-2.8 4.8 0 1.7.5 3.1 1.6 4.1 1.1 1 2.8 1.8 5.2 2.4l5.7 1.4c1.4.3 2.4.7 2.9 1.1.5.4.8 1 .8 1.7 0 .9-.5 1.6-1.4 2.2-.9.6-2.3.9-4.2.9-2 0-3.8-.4-5.3-1.1-1.5-.7-2.9-1.8-4.2-3.2l-3.8 3.8c1.5 1.8 3.3 3.1 5.6 4 2.3.9 4.9 1.4 7.8 1.4 3.4 0 6.1-.7 8.2-2.1 2.1-1.4 3.1-3.3 3.1-5.7 0-1.9-.6-3.4-1.7-4.5-1.1-1.1-2.9-2-5.3-2.6l-5.6-1.4c-1.3-.3-2.2-.6-2.7-1-.5-.4-.8-.9-.8-1.6 0-.8.4-1.4 1.2-1.9.8-.5 1.9-.7 3.3-.7 1.6 0 3 .3 4.2.9 1.2.6 2.3 1.4 3.4 2.5l3.8-3.8z"
    fill="#ffffff"
  />
</svg>
